<svg xmlns="http://www.w3.org/2000/svg" viewBox="0 0 969 770"><defs><style>.cls-1{fill:#fff;}</style></defs><title>logo-white</title><g id="レイヤー_2" data-name="レイヤー 2"><g id="ロゴA"><g id="logo-white"><path class="cls-1" d="M237.8,278.5H217.1V308q0,2.1-3.6,2.1t-3.6-2.1V258.8c0-5.5,1.1-9.6,3.2-12.1s5.9-3.7,11-3.7h17.3c1.2,0,1.8,1.1,1.8,3.2s-.6,3.1-1.8,3.1H224.1c-2.6,0-4.4.7-5.4,2.2s-1.6,3.9-1.6,7.3v13.4h20.7c1.2,0,1.8,1,1.8,3.1S239,278.5,237.8,278.5Z"/><path class="cls-1" d="M286.9,272.1v-4.5c0-4.7-2.8-7-8.3-7s-8.4,2.3-8.4,7v41.3q0,2.1-3.6,2.1t-3.6-2.1V268.5c0-5,1.4-8.6,4.3-10.9s6.6-3.3,11.3-3.3c10.3,0,15.5,4.6,15.5,14v3.8c0,1.4-1.2,2-3.6,2S286.9,273.5,286.9,272.1Z"/><path class="cls-1" d="M351.1,268.5v28.2c0,5-1.8,8.6-5.3,10.9s-8.3,3.4-14.1,3.4-10.6-1.2-14.2-3.4-5.4-5.9-5.4-10.9V268.5c0-5,1.8-8.6,5.3-10.9s8.3-3.3,14.2-3.3,10.6,1.1,14.2,3.3S351.1,263.5,351.1,268.5Zm-7.2,29.1v-30c0-4.7-4.1-7-12.3-7s-12.3,2.3-12.3,7v30c0,4.7,4.1,7.1,12.3,7.1S343.9,302.3,343.9,297.6Z"/><path class="cls-1" d="M414.4,268.5V308q0,2.1-3.6,2.1t-3.6-2.1V267.6c0-4.7-4.1-7-12.3-7s-12.3,2.3-12.3,7V308q0,2.1-3.6,2.1t-3.6-2.1V268.5c0-5,1.8-8.6,5.3-10.9s8.3-3.3,14.1-3.3,10.7,1.1,14.2,3.3S414.4,263.5,414.4,268.5Z"/><path class="cls-1" d="M454,245.1v10.5h9.4c1.2,0,1.8,1.1,1.8,3.2s-.6,3.1-1.8,3.1H454v37.2a10.7,10.7,0,0,0,1.3,5.3c.9,1.7,1.4,2.5,1.4,2.6s-.6,1.5-1.7,2.3a5.6,5.6,0,0,1-2.9,1.2q-2,0-3.6-3.3a14.7,14.7,0,0,1-1.7-7.2V261.9h-7.2c-1.2,0-1.8-1-1.8-3.1s.6-3.2,1.8-3.2h7.2V245.1q0-2.1,3.6-2.1T454,245.1Z"/><path class="cls-1" d="M523.5,268.3V271c0,5.1-1,8.6-3.1,10.5s-5.9,3.2-11.5,3.7l-17.6,1.7v10.7c0,4.7,3.9,7.1,11.7,7.1s13.3-2.1,13.3-6.2v-3.4q0-2.1,3.6-2.1t3.6,2.1v2.5c0,8.9-6.6,13.4-19.8,13.4-5.8,0-10.5-1.2-14.1-3.5s-5.5-5.8-5.5-10.8V268.5c0-5,1.9-8.6,5.8-10.9s8.8-3.3,15-3.3,10.8,1,14,3.2S523.5,263.3,523.5,268.3Zm-32.2-.7v13l16.9-1.7c3.5-.3,5.7-1.1,6.7-2.1s1.4-3,1.4-5.8v-3.4c0-4.7-4.1-7-12.5-7S491.3,262.9,491.3,267.6Z"/><path class="cls-1" d="M585,268.5V308q0,2.1-3.6,2.1t-3.6-2.1V267.6c0-4.7-4.1-7-12.3-7s-12.3,2.3-12.3,7V308q0,2.1-3.6,2.1T546,308V268.5c0-5,1.8-8.6,5.4-10.9s8.2-3.3,14.1-3.3,10.6,1.1,14.2,3.3S585,263.5,585,268.5Z"/><path class="cls-1" d="M646.5,239.7v57c0,5-1.8,8.6-5.3,10.9S632.9,311,627,311s-10.6-1.2-14.1-3.4-5.4-5.9-5.4-10.9V269.8c0-5,1.8-8.6,5.3-10.8s8.3-3.4,14.2-3.4h7.8c1.2,0,1.8,1.1,1.8,3.2s-.6,3.1-1.8,3.1H627c-8.2,0-12.3,2.3-12.3,7v28.7c0,4.7,4.1,7.1,12.3,7.1s12.3-2.4,12.3-7.1V239.7q0-2.1,3.6-2.1T646.5,239.7Z"/><path class="cls-1" d="M216.2,383.1v42.7c0,4.6,4.4,7,13.2,7s13.2-2.4,13.2-7v-6.5q0-2.1,3.6-2.1t3.6,2.1v5.6c0,9.4-6.7,14.2-20.1,14.2-6.2,0-11.2-1.1-15-3.4s-5.7-5.9-5.7-10.8V384q0-7.5,5.7-10.8c3.8-2.3,8.8-3.4,15-3.4,13.4,0,20.1,4.7,20.1,14.2v5.6q0,2.1-3.6,2.1t-3.6-2.1v-6.5c0-4.7-4.4-7-13.2-7S216.2,378.4,216.2,383.1Z"/><path class="cls-1" d="M312.1,396.6v28.3c0,4.9-1.7,8.6-5.3,10.8s-8.2,3.4-14.1,3.4-10.6-1.1-14.2-3.4-5.3-5.9-5.3-10.8V396.6c0-5,1.7-8.6,5.3-10.8s8.2-3.4,14.1-3.4,10.6,1.1,14.2,3.4S312.1,391.6,312.1,396.6Zm-7.2,29.2V395.7c0-4.7-4.1-7-12.2-7s-12.3,2.3-12.3,7v30.1c0,4.6,4.1,7,12.3,7S304.9,430.4,304.9,425.8Z"/><path class="cls-1" d="M375.4,396.6v39.5q0,2.1-3.6,2.1t-3.6-2.1V395.7c0-4.7-4.1-7-12.3-7s-12.3,2.3-12.3,7v40.4q0,2.1-3.6,2.1t-3.6-2.1V396.6c0-5,1.8-8.6,5.3-10.8s8.3-3.4,14.2-3.4,10.6,1.1,14.2,3.4S375.4,391.6,375.4,396.6Z"/><path class="cls-1" d="M397.9,383.7h6.3v-5.1c0-9.5,6.2-14.2,18.5-14.2h3.2c1.2,0,1.8,1,1.8,3.1s-.6,3.2-1.8,3.2h-3.2c-7.5,0-11.3,2.3-11.3,7v6h10.4c1.2,0,1.8,1.1,1.8,3.2s-.6,3.1-1.8,3.1H411.4v57a22.1,22.1,0,0,1-1.7,9.5c-1.1,2.5-2.3,3.7-3.6,3.7a5.6,5.6,0,0,1-2.9-1.2c-1.1-.8-1.7-1.6-1.7-2.3a3.2,3.2,0,0,1,.7-1.3,18.9,18.9,0,0,0,2-9.3V390h-6.3c-1.2,0-1.8-1-1.8-3.1S396.7,383.7,397.9,383.7Z"/><path class="cls-1" d="M481,396.4v2.7c0,5.1-1.1,8.6-3.2,10.6s-5.9,3.1-11.5,3.6l-17.5,1.8v10.7c0,4.6,3.9,7,11.7,7s13.3-2.1,13.3-6.1v-3.5c0-1.3,1.2-2,3.6-2s3.6.7,3.6,2v2.6c0,8.8-6.6,13.3-19.8,13.3-5.8,0-10.6-1.2-14.2-3.4s-5.4-5.9-5.4-10.8V396.6q0-7.5,5.7-10.8c3.9-2.3,8.9-3.4,15-3.4s10.9,1.1,14,3.2S481,391.4,481,396.4Zm-32.2-.7v13.1l16.9-1.8q5.1-.5,6.6-2.1c1-1.1,1.5-3,1.5-5.8v-3.4c0-4.7-4.2-7-12.5-7S448.8,391,448.8,395.7Z"/><path class="cls-1" d="M529.2,400.2v-4.5c0-4.7-2.8-7-8.4-7s-8.3,2.3-8.3,7V437q0,2.1-3.6,2.1t-3.6-2.1V396.6c0-5,1.4-8.6,4.3-10.8s6.6-3.4,11.2-3.4c10.4,0,15.6,4.7,15.6,14v3.8q0,2.1-3.6,2.1T529.2,400.2Z"/><path class="cls-1" d="M593.8,396.4v2.7c0,5.1-1,8.6-3.1,10.6s-6,3.1-11.5,3.6l-17.6,1.8v10.7c0,4.6,3.9,7,11.7,7s13.3-2.1,13.3-6.1v-3.5c0-1.3,1.2-2,3.6-2s3.6.7,3.6,2v2.6c0,8.8-6.6,13.3-19.8,13.3-5.8,0-10.5-1.2-14.1-3.4s-5.5-5.9-5.5-10.8V396.6c0-5,1.9-8.6,5.8-10.8s8.8-3.4,15-3.4,10.8,1.1,14,3.2S593.8,391.4,593.8,396.4Zm-32.2-.7v13.1l16.9-1.8c3.5-.3,5.7-1,6.7-2.1s1.4-3,1.4-5.8v-3.4c0-4.7-4.1-7-12.5-7S561.6,391,561.6,395.7Z"/><path class="cls-1" d="M653.5,396.6v39.5q0,2.1-3.6,2.1t-3.6-2.1V395.7c0-4.7-4.1-7-12.3-7s-12.3,2.3-12.3,7v40.4q0,2.1-3.6,2.1t-3.6-2.1V396.6c0-5,1.8-8.6,5.3-10.8s8.3-3.4,14.2-3.4,10.6,1.1,14.2,3.4S653.5,391.6,653.5,396.6Z"/><path class="cls-1" d="M683.2,395.7v30.1c0,4.6,3.8,7,11.5,7s11.5-2.4,11.5-7V422q0-2.1,3.6-2.1t3.6,2.1v2.9c0,4.9-1.7,8.6-5,10.8s-8,3.4-13.6,3.4-10.2-1.1-13.7-3.4-5.1-5.9-5.1-10.8V396.6q0-7.5,5.1-10.8c3.5-2.3,8-3.4,13.7-3.4s10.2,1.1,13.6,3.4,5,5.8,5,10.8v2.9q0,2.1-3.6,2.1t-3.6-2.1v-3.8c0-4.7-3.8-7-11.5-7S683.2,391,683.2,395.7Z"/><path class="cls-1" d="M772.7,396.4v2.7c0,5.1-1.1,8.6-3.2,10.6s-5.9,3.1-11.5,3.6l-17.6,1.8v10.7c0,4.6,3.9,7,11.7,7s13.4-2.1,13.4-6.1v-3.5c0-1.3,1.2-2,3.6-2s3.6.7,3.6,2v2.6c0,8.8-6.6,13.3-19.8,13.3-5.9,0-10.6-1.2-14.2-3.4s-5.5-5.9-5.5-10.8V396.6c0-5,2-8.6,5.8-10.8s8.9-3.4,15-3.4,10.9,1.1,14,3.2S772.7,391.4,772.7,396.4Zm-32.3-.7v13.1l17-1.8q5.1-.5,6.6-2.1c1-1.1,1.5-3,1.5-5.8v-3.4c0-4.7-4.2-7-12.5-7S740.4,391,740.4,395.7Z"/><path class="cls-1" d="M247.1,514.2v1.5c0,3.5-2,7.6-5.8,12.3l-26.1,31.6h30.1c1.2,0,1.8,1,1.8,3.1s-.6,3.2-1.8,3.2H207.2c-1.2,0-1.8-1.1-1.8-3.2a4.8,4.8,0,0,1,.8-2.9l28.6-34.6a42.2,42.2,0,0,0,3.9-5.5,9.1,9.1,0,0,0,1.2-4.4v-1.1c0-3.1-.6-5.3-1.6-6.6s-2.9-2-5.5-2H211.1c-1.2,0-1.8-1.1-1.8-3.2s.6-3.1,1.8-3.1h21.7c5.2,0,8.9,1.2,11,3.6S247.1,509,247.1,514.2Z"/><path class="cls-1" d="M305.6,512.1V553c0,5-2,8.6-5.8,10.8s-9,3.4-15.4,3.4c-13.7,0-20.5-4.7-20.5-14.2V512.1c0-5,1.9-8.6,5.8-10.8s9-3.4,15.3-3.4C298.7,497.9,305.6,502.6,305.6,512.1Zm-34.5-.9v42.7a5.5,5.5,0,0,0,3.4,5.3l14.4-54.8-3.9-.2C275.7,504.2,271.1,506.5,271.1,511.2Zm27.3,42.7V511.2q0-3.4-3.6-5.4l-14.5,54.9a21.3,21.3,0,0,0,4.1.2C293.7,560.9,298.4,558.6,298.4,553.9Z"/><path class="cls-1" d="M355.7,565.9H325.1c-1.2,0-1.8-1.1-1.8-3.2s.6-3.1,1.8-3.1h11.7v-54H325.1c-1.2,0-1.8-1.1-1.8-3.2s.6-3.1,1.8-3.1h13.5c2.3,0,3.7.4,4.4,1.4s1,2.6,1,5v53.9h11.7c1.2,0,1.8,1,1.8,3.1S356.9,565.9,355.7,565.9Z"/><path class="cls-1" d="M414.2,512.1V553c0,4.9-2,8.5-5.9,10.8s-8.9,3.4-14.8,3.4-10.9-1.1-14.7-3.4-5.7-5.9-5.7-10.8v-4c0-1.4,1.2-2,3.6-2s3.6.6,3.6,2v4.9c0,2.5,1.2,4.2,3.7,5.3a21.8,21.8,0,0,0,9.5,1.7,24.6,24.6,0,0,0,9.6-1.7c2.6-1.1,3.9-2.9,3.9-5.3V539.1l-16.3-2.4c-3.1-.5-5.5-1-7.4-1.5a22.4,22.4,0,0,1-5.3-2.3c-3.3-1.8-4.9-5.3-4.9-10.4V512.1c0-4.9,1.9-8.5,5.9-10.8s8.8-3.4,14.8-3.4,10.9,1.1,14.7,3.4S414.2,507.2,414.2,512.1Zm-33.9-.9v12a5,5,0,0,0,2.5,4.6c1.7,1.1,4.3,1.9,7.9,2.4l16.3,2.4V511.2a5.5,5.5,0,0,0-3.7-5.3,23.7,23.7,0,0,0-9.5-1.7,24.6,24.6,0,0,0-9.6,1.7C381.6,507.1,380.3,508.8,380.3,511.2Z"/><path class="cls-1" d="M259,178a3.2,3.2,0,0,1-2-.8L100,36.2a3,3,0,0,1,4-4.4l157,141a3,3,0,0,1,.2,4.2A2.8,2.8,0,0,1,259,178Z"/><path class="cls-1" d="M488,719a3.1,3.1,0,0,1-2.3-1.1,2.9,2.9,0,0,1,.4-4.2l208-177a3,3,0,1,1,3.8,4.6l-208,177A2.6,2.6,0,0,1,488,719Z"/><path class="cls-1" d="M933.9,233a3.5,3.5,0,0,1-3.3-2.4c-9.1-25.1-25.7-44.3-48-55.6-24.7-12.5-55.3-15.2-90.9-8-70.2,14.1-84.1-3-100.1-22.8-12.3-15.2-26.3-32.4-72.9-37.2-40.1-4.1-73.3,15.3-105.4,34.1-24.3,14.3-49.4,29-77.1,32.9-31,4.4-62-5.8-94.6-31s-67.7-43.6-101-52.1c-30.1-7.7-59-8-86.1-.9-45.8,12.1-83,44.8-101.9,89.7a3.5,3.5,0,0,1-6.5-2.7c19.8-47,58.7-81.1,106.6-93.7,28.2-7.5,58.4-7.2,89.6.8,34.3,8.8,69.1,26.7,103.6,53.4,68.9,53.3,115.1,26.2,163.9-2.4,33-19.4,67.2-39.4,109.6-35.1,49.5,5.2,64.4,23.6,77.6,39.8,15.3,18.8,27.3,33.6,93.3,20.3,37.2-7.5,69.3-4.6,95.5,8.6,23.9,12.2,41.7,32.8,51.4,59.6a3.6,3.6,0,0,1-2.1,4.5Z"/><path class="cls-1" d="M946.7,622.7a3.6,3.6,0,0,1-3.3-4.8c8.8-21.8,9.7-46.1,2.5-70.4-3.8-12.9-11.6-23.9-19.9-35.5-21.7-30.6-46.3-65.3-8.1-147.1a228.5,228.5,0,0,0,14.4-40,3.5,3.5,0,0,1,6.8,1.7,239.7,239.7,0,0,1-14.9,41.2c-36.5,78.2-14.1,109.7,7.5,140.1,8.6,12.2,16.8,23.6,20.9,37.6,7.7,25.8,6.7,51.7-2.7,75A3.4,3.4,0,0,1,946.7,622.7Z"/><path class="cls-1" d="M185.5,728.1c-7.5,0-14.9-.3-22.2-1-47.1-4.5-87.1-23.7-115.6-55.5C23.7,644.8,9,609.7,6.3,572.7A174.6,174.6,0,0,1,32.9,466.6C55.1,431.8,73.4,378,58.3,331.9a3.5,3.5,0,0,1,6.7-2.2c15.9,48.5-3.1,104.5-26.2,140.7A167.3,167.3,0,0,0,13.3,572.2c2.6,35.4,16.7,69.1,39.6,94.7,27.3,30.5,65.7,48.9,111.1,53.2,52.9,5,113.1-8.8,178.9-41.1,4.5-2.2,9.6-5,15.4-8.2,29.8-16.5,74.9-41.5,133.1-34.2,20.2,2.5,34.4,12.5,49.5,23.2,18.5,13.1,37.6,26.6,70.1,26.6h2.1c20-.4,34.2-7.1,49.2-14.1,26.3-12.4,53.4-25.1,110.8-.8a169.6,169.6,0,0,0,31.3,10,3.5,3.5,0,1,1-1.5,6.9A188.7,188.7,0,0,1,770.4,678c-54.6-23.2-79.1-11.6-105.1.6-15.1,7.1-30.6,14.4-52.1,14.8H611c-34.7,0-55.7-14.8-74.2-27.9-14.3-10.1-27.8-19.7-46.3-22-55.9-7-99.8,17.3-128.8,33.4-5.9,3.3-11,6.1-15.7,8.4C288,713.8,234.1,728.1,185.5,728.1Z"/><path class="cls-1" d="M56.5,205A49.5,49.5,0,1,1,7,254.5,49.5,49.5,0,0,1,56.5,205m0-7A56.5,56.5,0,1,0,113,254.5,56.5,56.5,0,0,0,56.5,198Z"/><path class="cls-1" d="M885.5,619A55.5,55.5,0,1,1,830,674.5,55.6,55.6,0,0,1,885.5,619m0-7A62.5,62.5,0,1,0,948,674.5,62.5,62.5,0,0,0,885.5,612Z"/><path class="cls-1" d="M940.5,256A21.5,21.5,0,1,1,919,277.5,21.5,21.5,0,0,1,940.5,256m0-7A28.5,28.5,0,1,0,969,277.5,28.6,28.6,0,0,0,940.5,249Z"/><path class="cls-1" d="M76,32A16,16,0,1,1,92,16,16,16,0,0,1,76,32ZM76,6A10,10,0,1,0,86,16,10,10,0,0,0,76,6Z"/><path class="cls-1" d="M722,533a14,14,0,1,1,14-14A14,14,0,0,1,722,533Zm0-22a8,8,0,1,0,8,8A8,8,0,0,0,722,511Z"/><path class="cls-1" d="M448,770a27,27,0,1,1,27-27A27,27,0,0,1,448,770Zm0-48a21,21,0,1,0,21,21A21,21,0,0,0,448,722Z"/></g></g></g></svg>