<svg xmlns="http://www.w3.org/2000/svg" width="24.496" height="24.497" viewBox="0 0 24.496 24.497"><defs><style>.a{fill:#707070;}</style></defs><path class="a" d="M15.626,8.869a7.268,7.268,0,0,1,.017,10.267l-.017.018-3.215,3.215A7.272,7.272,0,0,1,2.126,12.084L3.9,10.309a.765.765,0,0,1,1.306.507,8.816,8.816,0,0,0,.464,2.522.77.77,0,0,1-.181.795l-.626.626a3.445,3.445,0,1,0,4.84,4.9l3.215-3.215a3.444,3.444,0,0,0,0-4.872,3.584,3.584,0,0,0-.495-.41.767.767,0,0,1-.332-.6,1.906,1.906,0,0,1,.56-1.426l1.007-1.007a.769.769,0,0,1,.985-.083A7.3,7.3,0,0,1,15.626,8.869Zm6.743-6.743a7.28,7.28,0,0,0-10.285,0L8.869,5.341l-.017.018a7.274,7.274,0,0,0,1,11.09.769.769,0,0,0,.985-.083l1.007-1.007a1.906,1.906,0,0,0,.56-1.426.767.767,0,0,0-.332-.6,3.584,3.584,0,0,1-.495-.41,3.444,3.444,0,0,1,0-4.872l3.215-3.215a3.445,3.445,0,1,1,4.84,4.9L19,10.361a.77.77,0,0,0-.181.795,8.816,8.816,0,0,1,.464,2.522.765.765,0,0,0,1.306.507l1.775-1.775a7.28,7.28,0,0,0,0-10.284Z" transform="translate(0 0.001)"/></svg>