<svg xmlns="http://www.w3.org/2000/svg" width="270" height="19.441" viewBox="0 0 270 19.441"><defs><style>.a{fill:#fff;}</style></defs><g transform="translate(0 0)"><path class="a" d="M5.662,13.984h-4.2V19.97q0,.426-.731.426T0,19.97V10.006A3.784,3.784,0,0,1,.649,7.551,2.822,2.822,0,0,1,2.882,6.8H6.392c.244,0,.365.2.365.629s-.122.629-.365.629H2.882a1.267,1.267,0,0,0-1.1.446,2.7,2.7,0,0,0-.325,1.5v2.7h4.2c.244,0,.365.223.365.649S5.905,13.984,5.662,13.984Z" transform="translate(0 -5.42)"/><path class="a" d="M57.95,21.612V20.7c0-.954-.568-1.421-1.684-1.421s-1.7.467-1.7,1.421V29.08q0,.426-.731.426T53.1,29.08v-8.2a2.571,2.571,0,0,1,.873-2.192A3.672,3.672,0,0,1,56.266,18c2.09,0,3.145.954,3.145,2.841v.771q0,.426-.731.426T57.95,21.612Z" transform="translate(-42.324 -14.347)"/><path class="a" d="M110.114,20.882v5.743a2.4,2.4,0,0,1-1.076,2.192,5.376,5.376,0,0,1-2.861.69,5.316,5.316,0,0,1-2.882-.69,2.391,2.391,0,0,1-1.1-2.192V20.882a2.4,2.4,0,0,1,1.076-2.192,5.4,5.4,0,0,1,2.882-.69,5.269,5.269,0,0,1,2.882.69A2.377,2.377,0,0,1,110.114,20.882Zm-1.461,5.926V20.7c0-.954-.832-1.421-2.5-1.421s-2.5.467-2.5,1.421v6.108c0,.954.832,1.421,2.5,1.421S108.653,27.761,108.653,26.807Z" transform="translate(-81.46 -14.347)"/><path class="a" d="M173.414,20.882V28.9q0,.426-.731.426t-.73-.426V20.7c0-.954-.832-1.421-2.5-1.421s-2.5.467-2.5,1.421v8.2q0,.426-.731.426T165.5,28.9V20.882a2.4,2.4,0,0,1,1.076-2.192,5.375,5.375,0,0,1,2.861-.69,5.269,5.269,0,0,1,2.882.69A2.433,2.433,0,0,1,173.414,20.882Z" transform="translate(-131.915 -14.347)"/><path class="a" d="M231.188,7.206V9.337H233.1c.243,0,.365.223.365.649s-.122.629-.365.629h-1.908v7.549a2.293,2.293,0,0,0,.264,1.1l.284.507c0,.162-.122.3-.345.467a1.137,1.137,0,0,1-.589.244c-.264,0-.507-.2-.731-.649a3,3,0,0,1-.345-1.481V10.615h-1.461c-.243,0-.365-.2-.365-.629s.122-.649.365-.649h1.461V7.206c0-.284.244-.406.731-.406S231.188,6.922,231.188,7.206Z" transform="translate(-181.652 -5.42)"/><path class="a" d="M282.2,20.841v.548a2.9,2.9,0,0,1-.629,2.151,4.069,4.069,0,0,1-2.334.751l-3.572.345v2.171c0,.954.791,1.421,2.374,1.421s2.7-.406,2.7-1.238V26.3q0-.426.731-.426t.731.426v.507c0,1.806-1.339,2.7-4.018,2.7a5.242,5.242,0,0,1-2.861-.69,2.428,2.428,0,0,1-1.116-2.192V20.882a2.314,2.314,0,0,1,1.177-2.192,6.087,6.087,0,0,1,3.044-.69,5.159,5.159,0,0,1,2.841.649A2.423,2.423,0,0,1,282.2,20.841Zm-6.534-.142v2.658l3.43-.345a2.266,2.266,0,0,0,1.359-.446,1.756,1.756,0,0,0,.284-1.177V20.7c0-.954-.832-1.421-2.537-1.421S275.661,19.745,275.661,20.7Z" transform="translate(-218.556 -14.347)"/><path class="a" d="M344.014,20.882V28.9q0,.426-.731.426t-.731-.426V20.7c0-.954-.832-1.421-2.5-1.421s-2.5.467-2.5,1.421v8.2q0,.426-.731.426t-.73-.426V20.882a2.37,2.37,0,0,1,1.1-2.192,5.149,5.149,0,0,1,2.861-.69,5.269,5.269,0,0,1,2.882.69A2.377,2.377,0,0,1,344.014,20.882Z" transform="translate(-267.895 -14.347)"/><path class="a" d="M405.514,1.726V13.314a2.4,2.4,0,0,1-1.075,2.192,5.4,5.4,0,0,1-2.882.69,5.15,5.15,0,0,1-2.861-.69,2.433,2.433,0,0,1-1.1-2.192V7.855a2.454,2.454,0,0,1,1.075-2.212,5.223,5.223,0,0,1,2.882-.69h1.583c.243,0,.365.223.365.649s-.122.629-.365.629h-1.583c-1.664,0-2.5.487-2.5,1.441V13.5c0,.954.832,1.421,2.5,1.421s2.5-.467,2.5-1.421V1.726q0-.426.731-.426T405.514,1.726Z" transform="translate(-316.915 -1.036)"/><path class="a" d="M501.061,8.1v8.665c0,.954.893,1.421,2.679,1.421s2.679-.467,2.679-1.421V15.445q0-.426.73-.426t.73.426v1.136c0,1.928-1.36,2.882-4.079,2.882a5.732,5.732,0,0,1-3.044-.69,2.4,2.4,0,0,1-1.157-2.192v-8.3a2.335,2.335,0,0,1,1.157-2.192A5.733,5.733,0,0,1,503.8,5.4c2.719,0,4.079.954,4.079,2.882V9.418q0,.426-.73.426t-.73-.426V8.1c0-.954-.893-1.421-2.679-1.421S501.061,7.145,501.061,8.1Z" transform="translate(-398.216 -4.304)"/><path class="a" d="M571.694,20.882v5.743a2.356,2.356,0,0,1-1.075,2.192,5.375,5.375,0,0,1-2.861.69,5.271,5.271,0,0,1-2.882-.69,2.377,2.377,0,0,1-1.075-2.192V20.882a2.356,2.356,0,0,1,1.075-2.192,5.377,5.377,0,0,1,2.861-.69,5.27,5.27,0,0,1,2.882.69A2.377,2.377,0,0,1,571.694,20.882Zm-1.461,5.926V20.7c0-.954-.832-1.421-2.5-1.421s-2.476.467-2.476,1.421v6.108c0,.954.832,1.421,2.476,1.421S570.233,27.761,570.233,26.807Z" transform="translate(-449.388 -14.347)"/><path class="a" d="M634.914,20.882V28.9q0,.426-.73.426t-.73-.426V20.7c0-.954-.832-1.421-2.5-1.421s-2.5.467-2.5,1.421v8.2q0,.426-.73.426T627,28.9V20.882a2.4,2.4,0,0,1,1.075-2.192,5.4,5.4,0,0,1,2.882-.69,5.148,5.148,0,0,1,2.861.69A2.433,2.433,0,0,1,634.914,20.882Z" transform="translate(-499.762 -14.347)"/><path class="a" d="M687.065,3.917h1.279V2.882C688.344.954,689.6,0,692.1,0h.649c.243,0,.365.223.365.629s-.122.649-.365.649H692.1c-1.522,0-2.293.467-2.293,1.421V3.917h2.09c.244,0,.365.223.365.649s-.122.629-.365.629H689.8V16.762a4.75,4.75,0,0,1-.345,1.928c-.223.507-.467.751-.73.751a1.076,1.076,0,0,1-.589-.244c-.223-.162-.345-.3-.345-.467a.813.813,0,0,1,.142-.264,3.836,3.836,0,0,0,.406-1.887V5.2h-1.279c-.243,0-.365-.2-.365-.629S686.822,3.917,687.065,3.917Z" transform="translate(-547.347)"/><path class="a" d="M740.116,20.841v.548a2.9,2.9,0,0,1-.649,2.151,4.07,4.07,0,0,1-2.333.751l-3.572.345v2.171c0,.954.792,1.421,2.375,1.421s2.719-.406,2.719-1.238V26.3q0-.426.731-.426t.73.426v.507c0,1.806-1.339,2.7-4.018,2.7a5.269,5.269,0,0,1-2.882-.69,2.428,2.428,0,0,1-1.116-2.192V20.882a2.35,2.35,0,0,1,1.177-2.192,6.087,6.087,0,0,1,3.044-.69,5.159,5.159,0,0,1,2.841.649A2.481,2.481,0,0,1,740.116,20.841Zm-6.555-.142v2.658l3.45-.345a2.248,2.248,0,0,0,1.34-.446,1.745,1.745,0,0,0,.3-1.177V20.7c0-.954-.852-1.421-2.536-1.421S733.561,19.745,733.561,20.7Z" transform="translate(-583.534 -14.347)"/><path class="a" d="M800.75,21.612V20.7c0-.954-.568-1.421-1.7-1.421s-1.684.467-1.684,1.421V29.08q0,.426-.731.426t-.73-.426v-8.2a2.62,2.62,0,0,1,.852-2.192,3.589,3.589,0,0,1,2.293-.69c2.111,0,3.166.954,3.166,2.841v.771q0,.426-.731.426T800.75,21.612Z" transform="translate(-634.387 -14.347)"/><path class="a" d="M853,20.841v.548a2.9,2.9,0,0,1-.629,2.151,4.126,4.126,0,0,1-2.333.751l-3.572.345v2.171c0,.954.791,1.421,2.374,1.421s2.7-.406,2.7-1.238V26.3q0-.426.731-.426T853,26.3v.507c0,1.806-1.339,2.7-4.018,2.7a5.364,5.364,0,0,1-2.882-.69,2.372,2.372,0,0,1-1.1-2.192V20.882a2.314,2.314,0,0,1,1.177-2.192,6.087,6.087,0,0,1,3.044-.69,5.036,5.036,0,0,1,2.821.649A2.481,2.481,0,0,1,853,20.841Zm-6.534-.142v2.658l3.429-.345a2.246,2.246,0,0,0,1.339-.446,1.744,1.744,0,0,0,.3-1.177V20.7c0-.954-.832-1.421-2.537-1.421S846.461,19.745,846.461,20.7Z" transform="translate(-673.523 -14.347)"/><path class="a" d="M913.014,20.882V28.9q0,.426-.73.426t-.731-.426V20.7c0-.954-.832-1.421-2.5-1.421s-2.5.467-2.5,1.421v8.2q0,.426-.73.426T905.1,28.9V20.882a2.4,2.4,0,0,1,1.075-2.192,5.4,5.4,0,0,1,2.882-.69,5.15,5.15,0,0,1,2.861.69A2.433,2.433,0,0,1,913.014,20.882Z" transform="translate(-721.427 -14.347)"/><path class="a" d="M968.061,20.7v6.108c0,.954.771,1.421,2.334,1.421s2.333-.467,2.333-1.421v-.771q0-.426.731-.426t.73.426v.589a2.413,2.413,0,0,1-1.035,2.192,4.766,4.766,0,0,1-2.74.69,4.952,4.952,0,0,1-2.78-.69,2.436,2.436,0,0,1-1.035-2.192V20.882a2.413,2.413,0,0,1,1.035-2.192,4.907,4.907,0,0,1,2.78-.69,4.722,4.722,0,0,1,2.74.69,2.482,2.482,0,0,1,1.035,2.192v.589q0,.426-.73.426t-.731-.426V20.7c0-.954-.771-1.421-2.333-1.421S968.061,19.745,968.061,20.7Z" transform="translate(-770.447 -14.347)"/><path class="a" d="M1031.816,20.841v.548a2.9,2.9,0,0,1-.65,2.151,4.07,4.07,0,0,1-2.333.751l-3.572.345v2.171c0,.954.792,1.421,2.375,1.421s2.719-.406,2.719-1.238V26.3q0-.426.731-.426c.467,0,.73.142.73.426v.507c0,1.806-1.339,2.7-4.018,2.7a5.268,5.268,0,0,1-2.882-.69,2.428,2.428,0,0,1-1.116-2.192V20.882a2.35,2.35,0,0,1,1.177-2.192,6.035,6.035,0,0,1,3.044-.69,5.113,5.113,0,0,1,2.841.649A2.482,2.482,0,0,1,1031.816,20.841Zm-6.555-.142v2.658l3.45-.345a2.247,2.247,0,0,0,1.34-.446,1.745,1.745,0,0,0,.3-1.177V20.7c0-.954-.852-1.421-2.557-1.421S1025.261,19.745,1025.261,20.7Z" transform="translate(-816.039 -14.347)"/><path class="a" d="M1130.226,9.824v.3a4.213,4.213,0,0,1-1.157,2.5l-5.3,6.392h6.088c.244,0,.366.223.366.649s-.122.629-.366.629h-7.711c-.264,0-.365-.2-.365-.629a.854.854,0,0,1,.163-.588l5.8-7.021a8.608,8.608,0,0,0,.792-1.116,2.074,2.074,0,0,0,.224-.893V9.824a2.093,2.093,0,0,0-.325-1.339,1.344,1.344,0,0,0-1.1-.426h-4.424c-.244,0-.365-.2-.365-.629s.122-.629.365-.629h4.424a2.973,2.973,0,0,1,2.232.71A3.32,3.32,0,0,1,1130.226,9.824Z" transform="translate(-894.136 -5.42)"/><path class="a" d="M1188.662,8.282v8.3a2.314,2.314,0,0,1-1.177,2.192,6.283,6.283,0,0,1-3.105.69c-2.78,0-4.18-.954-4.18-2.882v-8.3a2.329,2.329,0,0,1,1.2-2.192,6.227,6.227,0,0,1,3.1-.69C1187.282,5.4,1188.662,6.354,1188.662,8.282Zm-7-.183v8.665a1.136,1.136,0,0,0,.71,1.076l2.922-11.121-.792-.041C1182.615,6.678,1181.661,7.145,1181.661,8.1Zm5.54,8.665V8.1a1.2,1.2,0,0,0-.73-1.1l-2.943,11.141.853.041C1186.268,18.185,1187.2,17.718,1187.2,16.764Z" transform="translate(-940.701 -4.304)"/><path class="a" d="M1246.176,20.295h-6.21c-.244,0-.365-.2-.365-.629s.122-.649.365-.649h2.375V8.058h-2.375c-.244,0-.365-.2-.365-.629s.122-.629.365-.629h2.739c.467,0,.771.081.914.264A2.13,2.13,0,0,1,1243.8,8.1V19.016h2.375c.243,0,.365.223.365.649S1246.419,20.295,1246.176,20.295Z" transform="translate(-988.047 -5.42)"/><path class="a" d="M1297.741,8.282v8.3a2.355,2.355,0,0,1-1.177,2.192,5.9,5.9,0,0,1-3.023.69,5.693,5.693,0,0,1-2.983-.69,2.377,2.377,0,0,1-1.157-2.192V15.77q0-.426.73-.426t.731.426v.994a1.136,1.136,0,0,0,.771,1.076,4.647,4.647,0,0,0,1.908.345,4.993,4.993,0,0,0,1.948-.345,1.129,1.129,0,0,0,.792-1.076v-3l-3.288-.487a14.708,14.708,0,0,1-1.5-.3,3.937,3.937,0,0,1-1.075-.467,2.195,2.195,0,0,1-1.015-2.11V8.282a2.37,2.37,0,0,1,1.2-2.192,5.9,5.9,0,0,1,3.023-.69,5.62,5.62,0,0,1,2.963.69A2.378,2.378,0,0,1,1297.741,8.282Zm-6.879-.183v2.435a1.056,1.056,0,0,0,.507.933,4.163,4.163,0,0,0,1.624.487l3.288.487V8.1a1.117,1.117,0,0,0-.751-1.076,4.709,4.709,0,0,0-1.908-.345,5.09,5.09,0,0,0-1.968.345A1.147,1.147,0,0,0,1290.861,8.1Z" transform="translate(-1027.741 -4.304)"/></g></svg>