<svg xmlns="http://www.w3.org/2000/svg" width="25" height="20.305" viewBox="0 0 25 20.305"><defs><style>.a{fill:#707070;}</style></defs><path class="a" d="M22.43,53.142c.016.222.016.444.016.666A14.478,14.478,0,0,1,7.868,68.386,14.479,14.479,0,0,1,0,66.086a10.6,10.6,0,0,0,1.237.063A10.261,10.261,0,0,0,7.6,63.961a5.133,5.133,0,0,1-4.791-3.553,6.462,6.462,0,0,0,.968.079,5.419,5.419,0,0,0,1.348-.174,5.124,5.124,0,0,1-4.109-5.029V55.22a5.16,5.16,0,0,0,2.316.65,5.131,5.131,0,0,1-1.586-6.853A14.564,14.564,0,0,0,12.309,54.38a5.784,5.784,0,0,1-.127-1.174A5.129,5.129,0,0,1,21.05,49.7,10.088,10.088,0,0,0,24.3,48.463a5.11,5.11,0,0,1-2.253,2.824A10.271,10.271,0,0,0,25,50.493a11.014,11.014,0,0,1-2.57,2.649Z" transform="translate(0 -48.082)"/></svg>